<svg width="400" height="400" viewBox="0 0 400 400" fill="none" xmlns="http://www.w3.org/2000/svg">
<circle cx="200" cy="200" r="195.676" fill="white"/>
<path d="M200 0C89.6 0 0 89.6 0 200C0 310.4 89.6 400 200 400C310.4 400 400 310.4 400 200C400 89.6 310.4 0 200 0ZM200 377.658C104.533 377.658 22.3423 295.467 22.3423 200C22.3423 104.533 104.533 22.3423 200 22.3423C295.467 22.3423 377.658 104.533 377.658 200C377.658 295.467 295.467 377.658 200 377.658Z" fill="#C0FFEE"/>
<rect x="142.703" y="90.8108" width="34.5946" height="216.216" fill="#C0FFEE"/>
<rect x="222.703" y="90.8108" width="34.5946" height="216.216" fill="#C0FFEE"/>
</svg>
