<svg width="185" height="185" viewBox="0 0 185 185" fill="none" xmlns="http://www.w3.org/2000/svg">
<circle cx="92.5" cy="92.5" r="90.5" fill="white"/>
<path d="M92.5 0C41.44 0 0 41.44 0 92.5C0 143.56 41.44 185 92.5 185C143.56 185 185 143.56 185 92.5C185 41.44 143.56 0 92.5 0ZM92.5 174.667C48.3467 174.667 10.3333 136.653 10.3333 92.5C10.3333 48.3467 48.3467 10.3333 92.5 10.3333C136.653 10.3333 174.667 48.3467 174.667 92.5C174.667 136.653 136.653 174.667 92.5 174.667Z" fill="#C0FFEE"/>
<path d="M68.0022 135.254L68.0022 51.25L140.752 93.2522L68.0022 135.254Z" fill="#C0FFEE"/>
</svg>
