<svg width="955" height="955" viewBox="0 0 955 955" fill="none" xmlns="http://www.w3.org/2000/svg">
<path d="M277.588 360.355H445.668V795.835H508.061V360.355H677.414V305.6H277.588V360.355Z" fill="#975FB6"/>
<path d="M508 159H446V326H508V159Z" fill="#975FB6"/>
<path d="M477.5 0C213.92 0 0 213.92 0 477.5C0 741.08 213.92 955 477.5 955C741.08 955 955 741.08 955 477.5C955 213.92 741.08 0 477.5 0ZM477.5 891.333C249.573 891.333 63.6667 705.427 63.6667 477.5C63.6667 249.573 249.573 63.6667 477.5 63.6667C705.427 63.6667 891.333 249.573 891.333 477.5C891.333 705.427 705.427 891.333 477.5 891.333Z" fill="#975FB6"/>
</svg>
