<svg width="64" height="64" viewBox="0 0 64 64" fill="none" xmlns="http://www.w3.org/2000/svg">
<g clip-path="url(#clip0)">
<path d="M18.6027 24.1494H29.8667V53.3334H34.048V24.1494H45.3973V20.48H18.6027V24.1494Z" fill="#2183CC"/>
<path d="M34.048 10.6667H29.8667V17.92H34.048V10.6667Z" fill="#2183CC"/>
<path d="M32 0C14.336 0 0 14.336 0 32C0 49.664 14.336 64 32 64C49.664 64 64 49.664 64 32C64 14.336 49.664 0 32 0ZM32 59.7333C16.7253 59.7333 4.26667 47.2747 4.26667 32C4.26667 16.7253 16.7253 4.26667 32 4.26667C47.2747 4.26667 59.7333 16.7253 59.7333 32C59.7333 47.2747 47.2747 59.7333 32 59.7333Z" fill="#2183CC"/>
</g>
<defs>
<clipPath id="clip0">
<path d="M0 0H64V64H0V0Z" fill="white"/>
</clipPath>
</defs>
</svg>
