<svg width="62" height="64" viewBox="0 0 62 64" fill="none" xmlns="http://www.w3.org/2000/svg">
<path fill-rule="evenodd" clip-rule="evenodd" d="M33.3786 36.6533C33.3786 36.6533 34.5173 36.7547 35.1279 35.9947L36.3226 34.4933C36.8986 33.7467 38.2906 33.272 39.6533 34.0293C41.4559 35.048 43.7866 36.648 45.3839 38.1387C46.2639 38.88 46.4693 39.9733 45.8693 41.128L45.8639 41.152C45.2453 42.24 44.4213 43.2613 43.3786 44.2133L43.3546 44.2293C42.1813 45.208 40.8319 45.776 39.3893 45.3067L39.3626 45.2693C36.7706 44.536 30.5519 41.3653 26.5893 38.2053C20.1066 33.0907 15.4986 24.6533 14.2239 20.1307L14.1839 20.104C13.7146 18.656 14.2879 17.3067 15.2613 16.136L15.2799 16.1147C16.2319 15.072 17.2506 14.2453 18.3413 13.6293L18.3653 13.624C19.5173 13.024 20.6106 13.2267 21.3546 14.1093C22.3333 15.12 24.1706 17.552 25.4613 19.84C26.2186 21.2 25.7439 22.5947 24.9999 23.168L23.4959 24.3627C22.7386 24.976 22.8373 26.1147 22.8373 26.1147C22.8373 26.1147 25.0613 34.5307 33.3786 36.6533ZM46.4639 29.6773C46.0186 29.6773 45.6559 29.3173 45.6533 28.872C45.6159 23.992 44.1493 20.104 41.2959 17.32C38.4373 14.5333 34.8239 13.104 30.5573 13.0747C30.1093 13.072 29.7493 12.7067 29.7546 12.2587C29.7573 11.8133 30.1173 11.456 30.5626 11.456H30.5679C35.2666 11.488 39.2559 13.072 42.4266 16.16C45.5999 19.2587 47.2319 23.5333 47.2719 28.8613C47.2746 29.3067 46.9173 29.672 46.4693 29.6773H46.4639ZM42.2106 28.0133H42.1919C41.7439 28.0027 41.3893 27.632 41.3999 27.1867C41.4639 24.4187 40.6719 22.1787 38.9839 20.336C37.3039 18.4987 34.9973 17.496 31.9306 17.272C31.4853 17.2373 31.1493 16.8507 31.1813 16.4053C31.2159 15.96 31.6026 15.624 32.0479 15.656C35.4986 15.9093 38.2346 17.1173 40.1786 19.2427C42.1333 21.376 43.0906 24.0613 43.0186 27.2213C43.0079 27.6613 42.6479 28.0133 42.2106 28.0133ZM38.0559 26.6213C37.6266 26.6213 37.2693 26.2853 37.2479 25.8507C37.1119 23.104 35.8159 21.76 33.1759 21.616C32.7279 21.592 32.3866 21.2107 32.4106 20.7653C32.4346 20.3173 32.8133 19.976 33.2613 20C36.7493 20.1867 38.6853 22.184 38.8639 25.7707C38.8879 26.216 38.5439 26.5973 38.0959 26.6187L38.0559 26.6213ZM54.4959 6.23734C52.9039 4.77601 46.4773 0.10934 32.1626 0.0453402C32.1626 0.0453402 15.2826 -0.973326 7.05327 6.57867C2.47194 11.16 0.861272 17.8613 0.690605 26.1733C0.522605 34.488 0.30127 50.0613 15.3146 54.2853L15.3306 54.2907L15.3199 60.7333C15.3199 60.7333 15.2266 63.344 16.9439 63.8773C19.0213 64.52 20.2399 62.5387 22.2266 60.4C23.3146 59.2267 24.8159 57.504 25.9519 56.1867C36.2213 57.0453 44.1173 55.0747 45.0159 54.784C47.0879 54.1093 58.8213 52.608 60.7306 37.032C62.6986 20.9733 59.7759 10.8187 54.4959 6.23734Z" fill="#C0FFEE"/>
</svg>
