<svg width="64" height="64" viewBox="0 0 64 64" fill="none" xmlns="http://www.w3.org/2000/svg">
<path d="M61.2983 37.2427C64.9169 16.536 46.8556 -1.18931 26.4929 2.63202C10.9703 -6.86398 -6.84839 11.2347 2.66628 26.7094C-1.03239 47.368 17.0236 65.3227 37.5543 61.4027C53.1063 70.832 70.8689 52.7094 61.2983 37.2427ZM33.0236 52.952C24.5409 52.952 16.0156 49.0907 16.0583 42.4427C16.0716 40.4374 17.5623 38.5974 19.5489 38.5974C24.5436 38.5974 24.4956 46.0507 32.4476 46.0507C38.0289 46.0507 39.9329 42.9947 39.9329 40.8667C39.9329 33.1707 15.8183 37.888 15.8183 23.4187C15.8183 15.584 22.2236 10.1867 32.2956 10.776C41.9009 11.344 47.5303 15.584 48.0743 19.5467C48.3436 22.136 46.6289 24.152 43.6503 24.152C39.3089 24.152 38.8636 18.336 31.3836 18.336C28.0076 18.336 25.1596 19.744 25.1596 22.8C25.1596 29.1867 49.1329 25.48 49.1329 39.536C49.1303 47.64 42.6716 52.952 33.0236 52.952Z" fill="#C0FFEE"/>
</svg>
