<svg width="944" height="461" viewBox="0 0 944 461" fill="none" xmlns="http://www.w3.org/2000/svg">
<path d="M329.915 393.901H327.836C326.796 393.901 325.063 393.901 324.023 394.249C324.023 394.249 320.211 394.597 318.825 395.639C317.093 396.682 316.399 398.768 316.399 401.202C316.399 403.636 317.093 405.722 318.825 407.112C320.558 408.503 324.37 408.851 324.37 408.851C325.41 408.851 327.142 409.198 328.182 409.198H329.915C330.954 409.198 331.994 408.155 331.994 407.112V395.987C331.994 394.944 330.954 393.901 329.915 393.901Z" fill="#EAA50D"/>
<path d="M86.2907 394.249H80.3994C79.3598 394.249 78.3201 395.292 77.9736 396.335C77.9736 396.335 76.5874 404.679 74.8546 410.937C73.1219 417.195 69.3098 425.538 69.3098 425.538C68.9633 426.581 69.3098 427.277 70.3495 427.277H86.2907C87.3304 427.277 88.37 426.234 88.37 425.191V395.987C88.0235 394.944 87.3304 394.249 86.2907 394.249Z" fill="#EAA50D"/>
<path d="M511.507 359.483H41.9324C36.3877 359.483 32.2291 364.002 32.2291 369.217V450.57C32.2291 456.133 36.7342 460.305 41.9324 460.305H511.16C516.705 460.305 520.863 455.785 520.863 450.57V369.217C521.21 364.002 517.051 359.483 511.507 359.483ZM101.539 444.66C101.539 445.703 100.499 446.746 99.4596 446.746H95.9941C94.9545 446.746 93.9148 445.703 93.9148 444.66V435.968C93.9148 434.925 92.8752 433.882 91.8355 433.882H65.8443C64.8047 433.882 63.765 434.925 63.765 435.968V444.66C63.765 445.703 62.7254 446.746 61.6857 446.746H58.2203C57.1806 446.746 56.141 445.703 56.141 444.66V429.363C56.141 428.32 56.8341 427.277 57.8737 427.277C58.9134 427.277 59.953 426.581 60.6461 425.538C60.6461 425.538 65.4978 415.456 67.5771 408.503C69.6564 401.55 71.3891 389.382 71.3891 389.382C71.3891 388.339 72.4288 387.296 73.4684 387.296H93.2217C94.2614 387.296 95.301 388.339 95.301 389.382V425.191C95.301 426.234 96.3407 427.277 97.3803 427.277H99.4596C100.499 427.277 101.539 428.32 101.539 429.363V444.66ZM185.75 431.796C185.75 432.839 184.711 433.882 183.671 433.882H180.552C179.512 433.882 178.473 432.839 178.473 431.796V411.98C178.473 410.937 178.473 409.198 178.473 408.155L178.819 398.768C178.819 397.725 178.819 396.682 178.819 396.682C178.819 396.682 178.126 397.378 177.78 398.421L156.294 432.144C155.601 433.187 154.214 433.882 153.175 433.882H148.323C147.283 433.882 146.244 432.839 146.244 431.796V389.382C146.244 388.339 147.283 387.296 148.323 387.296H151.442C152.482 387.296 153.521 388.339 153.521 389.382V409.546C153.521 410.589 153.521 412.327 153.521 413.37C153.521 413.37 153.521 416.499 153.521 418.933C153.521 421.366 153.521 422.062 153.521 422.062C153.521 423.105 153.521 424.148 153.521 424.148C153.521 424.148 154.214 423.452 154.561 422.409L176.047 389.034C176.74 387.991 178.126 387.296 179.166 387.296H183.671C184.711 387.296 185.75 388.339 185.75 389.382V431.796ZM264.764 392.163C264.764 393.206 263.724 394.249 262.684 394.249H252.981C251.941 394.249 250.902 395.292 250.902 396.335V432.144C250.902 433.187 249.862 434.23 248.822 434.23H245.357C244.317 434.23 243.278 433.187 243.278 432.144V396.335C243.278 395.292 242.238 394.249 241.198 394.249H232.188C231.148 394.249 230.109 393.206 230.109 392.163V389.382C230.109 388.339 231.148 387.296 232.188 387.296H263.031C264.07 387.296 265.11 388.339 265.11 389.382V392.163H264.764ZM339.272 431.796C339.272 432.839 338.232 433.882 337.192 433.882H333.38C332.341 433.882 331.301 432.839 331.301 431.796V417.195C331.301 416.152 330.261 415.109 329.222 415.109H325.41C324.37 415.109 322.984 415.804 322.291 416.847L312.934 432.144C312.241 433.187 310.855 433.882 309.815 433.882H304.963C303.924 433.882 303.577 433.187 303.924 432.144L314.667 415.109C315.36 414.066 315.013 413.023 313.974 412.327C313.974 412.327 306.696 407.112 306.696 400.507C306.696 396.335 308.082 393.206 311.201 390.772C313.974 388.686 322.291 387.643 322.291 387.643C323.33 387.643 325.063 387.296 326.103 387.296H336.153C337.192 387.296 338.232 388.339 338.232 389.382V431.796H339.272ZM421.75 431.796C421.75 432.839 420.711 433.882 419.671 433.882H415.859C414.819 433.882 413.78 432.839 413.78 431.796V417.195C413.78 416.152 413.087 415.456 412.047 415.804C412.047 415.804 408.582 416.847 406.502 417.542C404.423 417.89 401.997 418.238 399.918 418.238C395.413 418.238 392.294 417.195 389.868 415.109C387.442 413.023 386.749 408.155 386.749 408.155C386.402 407.112 386.402 405.374 386.402 404.331V389.382C386.402 388.339 387.442 387.296 388.482 387.296H392.294C393.333 387.296 394.373 388.339 394.373 389.382V402.593C394.373 403.636 394.373 405.374 394.72 406.417C394.72 406.417 395.066 408.503 396.106 409.894C397.145 410.937 399.225 411.632 401.997 411.632C404.076 411.632 405.809 411.284 407.888 410.937C409.621 410.589 412.74 409.546 412.74 409.546C413.78 409.198 414.473 408.155 414.473 407.112V389.382C414.473 388.339 415.512 387.296 416.552 387.296H420.364C421.404 387.296 422.443 388.339 422.443 389.382V431.796H421.75ZM496.952 392.163C496.952 393.206 495.912 394.249 494.872 394.249H480.317C479.278 394.249 478.238 395.292 478.238 396.335V405.026C478.238 406.069 479.278 407.112 480.317 407.112H493.833C494.872 407.112 495.912 408.155 495.912 409.198V411.632C495.912 412.675 494.872 413.718 493.833 413.718H480.317C479.278 413.718 478.238 414.761 478.238 415.804V426.234C478.238 427.277 479.278 428.32 480.317 428.32H494.872C495.912 428.32 496.952 429.363 496.952 430.406V432.839C496.952 433.882 495.912 434.925 494.872 434.925H472.693C471.653 434.925 470.614 433.882 470.614 432.839V389.382C470.614 388.339 471.653 387.296 472.693 387.296H494.872C495.912 387.296 496.952 388.339 496.952 389.382V392.163Z" fill="#EAA50D"/>
<path d="M184.364 51.1063H191.988C200.305 51.1063 207.236 46.5867 207.236 37.8952C207.236 29.8989 201.692 25.0317 192.681 25.0317H177.433V63.6222H184.018V51.1063H184.364ZM184.364 31.2896H192.335C197.533 31.2896 200.652 33.7232 200.652 38.2428C200.652 42.4148 197.533 45.1961 192.335 45.1961H184.364V31.2896Z" fill="#EB8165"/>
<path d="M245.703 54.2353H263.724L267.536 63.6222H274.814L258.179 25.0317H251.941L234.96 63.6222H241.891L245.703 54.2353ZM254.714 33.0279L261.298 48.325H248.129L254.714 33.0279Z" fill="#EB8165"/>
<path d="M313.28 63.6222H340.311V71.9661H345.856L346.896 57.7119H342.044V25.0317H315.36V30.5943C315.36 43.4578 313.627 51.1063 310.508 57.7119H306.696V71.9661H312.587L313.28 63.6222ZM321.944 35.8092V31.2896H335.46V57.7119H317.786C320.211 52.1493 321.944 44.5008 321.944 35.8092Z" fill="#EB8165"/>
<path d="M387.442 25.0317H380.858V63.6222H387.442V25.0317Z" fill="#EB8165"/>
<path d="M459.524 32.6802L476.852 15.2971L472 10.4299L454.673 27.813C452.247 26.0747 449.474 25.0317 446.355 24.684V0H439.771V24.684C436.652 25.0317 433.88 26.4223 431.454 27.813L414.126 10.4299L409.275 15.2971L426.602 32.6802C424.869 35.1139 423.83 37.8952 423.137 41.0241H398.532V47.6297H423.137C423.483 50.7587 424.869 53.54 426.602 55.9736L409.275 73.3567L414.126 78.224L431.454 60.8409C433.88 62.5792 436.652 63.6222 439.771 63.9698V88.6538H446.355V63.9698C449.474 63.6222 452.247 62.2315 454.673 60.8409L472 78.224L476.852 73.3567L459.524 55.9736C461.257 53.54 462.297 50.7587 462.99 47.6297H487.595V41.0241H462.99C462.297 37.8952 461.257 35.1139 459.524 32.6802ZM443.236 58.0596C435.612 58.0596 430.068 51.8017 430.068 44.5008C430.068 36.8522 435.266 30.9419 442.89 30.9419C450.514 30.9419 456.059 37.1998 456.059 44.5008C456.059 51.8017 450.861 58.0596 443.236 58.0596Z" fill="#EB8165"/>
<path d="M90.1028 206.511C59.953 197.82 31.1894 189.128 31.1894 165.487C31.1894 143.584 50.2496 127.592 79.3598 127.592C101.885 127.592 125.104 135.936 144.511 148.799L155.254 131.764C134.115 117.51 105.351 108.471 80.0529 108.471C38.8135 108.471 10.3965 132.807 10.3965 167.225C10.3965 205.816 48.5169 216.246 82.8253 226.328C112.282 234.672 138.966 243.711 138.966 268.743C138.966 294.122 116.441 309.767 88.0235 309.767C60.9927 309.767 35.348 299.685 12.1292 281.954L0 298.294C22.5257 316.72 56.141 329.236 86.6373 329.236C127.184 329.236 159.759 305.247 159.759 267.352C159.759 228.762 124.065 216.246 90.1028 206.511Z" fill="#EB8165"/>
<path d="M285.21 301.771L205.504 112.643H181.592L276.546 326.455H294.22L389.175 112.643H366.302L285.21 301.771Z" fill="#EB8165"/>
<path d="M453.286 112.643H432.84V324.716H453.286V112.643Z" fill="#EB8165"/>
<path d="M699.336 21.2074H678.89V325.064H699.336V21.2074Z" fill="#EB8165"/>
<path d="M944 218.679C944 155.753 906.226 107.428 846.966 107.428C789.786 107.428 746.467 156.448 746.467 217.984C746.467 285.083 794.637 329.584 850.085 329.584C890.631 329.584 915.93 312.896 937.416 289.603L923.207 277.087C905.88 295.86 883.354 310.462 850.778 310.462C809.192 310.462 771.419 279.52 767.953 226.676H943.307C944 223.547 944 222.504 944 218.679ZM768.3 208.597C772.112 161.663 804.341 126.201 846.273 126.201C894.79 126.201 919.395 165.835 922.167 208.597H768.3Z" fill="#EB8165"/>
<path d="M573.885 44.8484H553.439V112.643H501.11V131.416H553.439V324.716H573.885V131.416H626.214V112.643H573.885V44.8484Z" fill="#EB8165"/>
</svg>
