<svg width="347" height="121" viewBox="0 0 347 121" fill="none" xmlns="http://www.w3.org/2000/svg">
<path d="M39.916 62.0953C38.6916 63.3225 37.2223 64.3043 35.9979 65.286C34.5286 66.0223 33.0593 66.7586 31.59 67.0041C30.1207 67.4949 28.4065 67.4949 26.9372 67.4949C23.9986 67.4949 21.5498 67.0041 19.1009 65.7769C16.6521 64.5497 14.693 62.8316 12.9788 60.8681C11.0198 58.6592 9.79534 56.4503 8.81581 53.7505C7.83627 51.0507 7.34651 48.1055 7.34651 45.1602C7.34651 42.4604 7.83627 39.7606 8.57092 37.3063C9.30558 34.8519 10.53 32.3976 12.2442 30.1886C13.9584 27.9797 15.9174 26.2617 18.3663 25.0345C20.8151 23.8073 23.5088 23.071 26.6923 23.071C28.1616 23.071 29.6309 23.3164 31.1002 23.5619C32.5695 23.8073 34.0388 24.2982 35.5081 25.2799C36.9774 26.0162 38.2018 26.998 39.4263 28.2251C40.6507 29.4523 41.6302 30.9249 42.6097 32.8884L48.2421 29.2069C46.5279 25.5254 43.8342 22.5801 40.1609 20.3712C36.4876 18.1623 32.3246 16.9351 27.1821 16.9351C23.0191 16.9351 19.1009 17.6714 15.6725 19.3895C12.2442 20.6166 9.30558 22.8256 7.10162 25.5254C4.89767 28.2251 2.9386 31.1704 1.95907 34.6065C0.489767 38.0426 0 41.4787 0 44.9148C0 48.5963 0.734651 52.0325 1.95907 55.4686C3.18349 58.9047 5.14255 62.0953 7.34651 64.7951C9.79534 67.4949 12.4891 69.7038 15.6725 71.4219C18.856 73.14 22.5293 73.8763 26.4474 73.8763C28.6514 73.8763 30.8553 73.6308 33.0593 72.8945C35.2632 72.4036 37.4672 71.4219 39.6711 70.4402C41.6302 69.213 43.5893 67.9858 45.0586 66.2677C46.7728 64.5497 47.9972 62.8316 48.7318 60.6227L42.8546 57.432C42.3649 59.3955 41.1404 60.8681 39.916 62.0953Z" fill="#2183CC"/>
<path d="M89.3825 72.6491C91.3416 71.9128 93.0558 70.931 94.5251 69.7038C95.9944 68.4767 97.2188 66.7586 98.1983 65.0406C99.1779 63.3225 99.4228 61.1136 99.4228 59.1501C99.4228 55.714 98.4432 52.5233 96.4842 50.069C94.5251 47.3692 92.0763 45.6511 88.8928 44.6694C91.5865 43.4422 93.5456 41.7241 95.0149 39.2698C96.4842 36.8154 97.2188 34.3611 97.2188 31.4158C97.2188 29.6978 96.9739 27.9797 96.2393 26.2617C95.5046 24.5436 94.77 23.071 93.5456 21.5984C92.3211 20.1258 91.0967 19.144 89.3825 18.1623C87.6684 17.426 85.9542 16.9351 83.9951 16.9351H56.0784V73.6308H83.0156C85.2195 73.6308 87.1786 73.3854 89.3825 72.6491ZM63.18 23.071H81.7912C83.0156 23.071 83.9951 23.3164 85.2195 23.8073C86.199 24.2982 87.1786 25.0345 87.9132 25.7708C88.6479 26.5071 89.1376 27.7343 89.6274 28.716C90.1172 29.9432 90.3621 31.1704 90.3621 32.3976C90.3621 33.6247 90.1172 34.8519 89.6274 36.0791C89.1376 37.3063 88.6479 38.288 87.9132 39.0243C87.1786 39.7606 86.199 40.497 85.2195 40.9878C84.24 41.4787 83.0156 41.7241 81.7912 41.7241H63.6698V23.071H63.18ZM63.18 47.86H83.5053C84.7297 47.86 85.9542 48.1055 86.9337 48.5963C87.9132 49.0872 88.8928 49.8235 89.6274 50.8053C90.3621 51.787 91.0967 52.7688 91.3416 53.9959C91.8314 55.2231 92.0763 56.4503 92.0763 57.6775C92.0763 58.9047 91.8314 60.1318 91.3416 61.359C90.8518 62.5862 90.1172 63.5679 89.3825 64.5497C88.6479 65.5314 87.6684 66.0223 86.4439 66.7586C85.2195 67.2495 83.9951 67.4949 82.7707 67.4949H63.18V47.86Z" fill="#2183CC"/>
<path d="M171.908 73.6308H179.01V23.3164H198.601V16.9351H152.318V23.3164H171.908V73.6308Z" fill="#2183CC"/>
<path d="M179.01 0H171.908V12.5172H179.01V0Z" fill="#2183CC"/>
<path d="M240.231 73.6308V16.9351H210.355L209.131 32.3976C208.641 37.3063 208.151 41.7241 207.661 45.4057C207.172 49.0872 206.682 52.2779 205.947 54.7322C205.212 57.1866 204.723 59.3955 203.988 61.1136C203.253 62.8316 202.519 64.0588 201.539 64.7951C200.805 65.7769 199.825 66.2677 198.845 66.7586C197.866 67.0041 196.886 67.2495 195.662 67.2495L196.886 74.1217C199.825 74.1217 202.519 73.3854 204.723 71.6673C206.927 70.1947 208.641 67.7404 210.355 64.3043C212.069 60.8682 213.049 56.6957 214.028 51.5416C215.008 46.3874 215.742 40.0061 216.477 32.643L217.212 23.3164H233.374V73.6308H240.231Z" fill="#2183CC"/>
<path d="M295.085 25.5254C292.636 22.8256 289.942 20.6167 286.759 18.8986C283.575 17.1806 279.902 16.4442 275.984 16.4442C272.066 16.4442 268.637 17.1806 265.454 18.8986C262.27 20.3712 259.332 22.5801 256.883 25.2799C254.434 27.9797 252.72 30.925 251.25 34.3611C249.781 37.7972 249.291 41.4787 249.291 45.1603C249.291 48.8418 250.026 52.2779 251.25 55.714C252.475 59.1501 254.434 62.3408 256.638 65.0406C259.087 67.7404 261.78 69.9493 264.964 71.4219C268.147 73.14 271.821 73.8763 275.739 73.8763C279.657 73.8763 283.085 73.14 286.269 71.4219C289.452 69.9493 292.391 67.7404 294.84 65.0406C297.289 62.3408 299.003 59.3956 300.472 55.9595C301.941 52.5233 302.431 48.8418 302.431 45.1603C302.431 41.4787 301.696 38.0426 300.472 34.6065C299.248 31.4158 297.533 28.2252 295.085 25.5254ZM293.86 53.2597C292.881 55.9595 291.656 58.4138 289.942 60.3773C288.228 62.5862 286.269 64.3043 283.82 65.5315C281.371 66.7586 278.677 67.4949 275.739 67.4949C272.8 67.4949 270.107 67.0041 267.658 65.7769C265.209 64.5497 263.25 62.8317 261.536 60.8682C259.821 58.9047 258.597 56.4503 257.617 53.7505C256.638 51.0507 256.148 48.3509 256.148 45.4057C256.148 42.7059 256.638 40.0061 257.617 37.3063C258.597 34.6065 259.821 32.1522 261.536 30.1887C263.25 28.2252 265.209 26.5071 267.658 25.0345C270.107 23.8073 272.8 23.071 275.739 23.071C278.677 23.071 281.126 23.8073 283.575 24.7891C286.024 26.0163 287.983 27.7343 289.697 29.6978C291.411 31.6613 292.636 34.1156 293.615 36.8154C294.595 39.5152 295.085 42.215 295.085 45.1603C295.33 47.8601 294.84 50.5599 293.86 53.2597Z" fill="#2183CC"/>
<path d="M26.2026 94.002C25.4679 93.2657 24.7333 92.7748 23.7537 92.284C22.7742 91.7931 21.7947 91.5477 20.8151 91.5477H10.7749V115.11H15.4277V107.256H21.06C22.0395 107.256 23.264 107.01 23.9986 106.519C24.9782 106.028 25.7128 105.538 26.4475 104.801C27.1821 104.065 27.6719 103.329 27.9168 102.347C28.1616 101.365 28.4065 100.383 28.4065 99.4016C28.4065 98.4199 28.1616 97.4381 27.9168 96.4564C27.427 95.4746 26.9372 94.7383 26.2026 94.002ZM22.7742 102.101C22.2844 102.838 21.5498 103.083 20.8151 103.083H15.4277V95.4747H20.5702C21.06 95.4747 21.3049 95.4746 21.7947 95.7201C22.2844 95.9655 22.5293 96.211 22.7742 96.4564C23.0191 96.7018 23.264 97.1927 23.5088 97.6836C23.7537 98.1744 23.7537 98.6653 23.7537 99.4016C23.7537 100.383 23.5088 101.365 22.7742 102.101Z" fill="#2183CC"/>
<path d="M89.6274 91.5477L80.5667 115.11H85.2195L87.4234 109.219H95.7495L97.9534 115.11H102.606L93.5455 91.5477H89.6274ZM88.1581 106.028L91.5865 96.7018L94.77 106.028H88.1581Z" fill="#2183CC"/>
<path d="M176.561 91.5477H162.358L161.868 98.1744C161.623 100.874 161.378 103.083 161.133 104.556C160.889 106.274 160.399 107.501 160.154 108.483C159.664 109.465 159.419 110.201 158.929 110.446C158.44 110.692 157.95 110.937 157.215 110.937H156.481V120.755H160.888V114.864H176.316V120.755H180.724V110.937H177.296V91.5477H176.561ZM172.153 111.183H163.337C164.072 110.201 164.807 108.728 165.296 106.765C165.786 104.801 166.031 102.347 166.521 99.1562L166.766 95.4747H172.398V111.183H172.153Z" fill="#2183CC"/>
<path d="M240.721 107.992V91.5477H236.068V115.11H239.741L251.74 98.9108V115.11H256.148V91.5477H252.72L240.721 107.992Z" fill="#2183CC"/>
<path d="M332.552 94.9838C331.572 93.7566 330.348 93.0203 328.879 92.284C327.409 91.5477 325.94 91.3022 324.226 91.3022C322.512 91.3022 321.042 91.5477 319.573 92.284C318.104 93.0203 316.879 93.7566 315.9 94.9838C314.92 96.211 313.941 97.4381 313.451 98.9108C312.961 100.383 312.471 101.856 312.471 103.329C312.471 104.801 312.716 106.274 313.206 107.746C313.696 109.219 314.43 110.446 315.655 111.673C316.879 112.901 317.859 113.637 319.328 114.373C320.797 115.11 322.267 115.355 323.981 115.355C325.695 115.355 327.164 115.11 328.634 114.373C330.103 113.637 331.327 112.901 332.307 111.673C333.287 110.692 334.021 109.219 334.756 107.992C335.246 106.519 335.735 105.047 335.735 103.574C335.735 102.101 335.49 100.629 335.001 99.1562C334.266 97.4381 333.531 96.211 332.552 94.9838ZM330.593 106.274C330.348 107.256 329.858 107.992 329.368 108.728C328.879 109.465 328.144 110.201 327.164 110.446C326.43 110.937 325.45 111.183 324.226 111.183C323.246 111.183 322.267 110.937 321.287 110.446C320.553 109.955 319.818 109.465 319.083 108.728C318.594 107.992 318.104 107.256 317.859 106.274C317.614 105.292 317.369 104.31 317.369 103.329C317.369 102.347 317.614 101.365 317.859 100.383C318.104 99.4016 318.594 98.6653 319.083 97.929C319.573 97.1927 320.308 96.7018 321.287 96.211C322.267 95.7201 323.246 95.4747 324.226 95.4747C325.205 95.4747 326.185 95.7201 327.164 96.211C327.899 96.7018 328.634 97.1927 329.368 97.929C329.858 98.6653 330.348 99.4016 330.838 100.383C331.083 101.365 331.327 102.347 331.327 103.329C331.083 104.31 330.838 105.292 330.593 106.274Z" fill="#2183CC"/>
<path d="M112.891 41.7242V47.6146H119.258H125.135H142.522V41.7242H125.135H119.258H112.891Z" fill="#2183CC"/>
<path d="M122.687 23.3164H146.685V16.9351H108.973V23.3164H116.075H122.687Z" fill="#2183CC"/>
<path d="M116.075 67.2495H108.973V73.6308H147.42V67.2495H122.687H116.075Z" fill="#2183CC"/>
<path d="M312.716 41.7242V47.6146H318.838H324.716H342.347V41.7242H324.716H318.838H312.716Z" fill="#2183CC"/>
<path d="M322.512 23.3164H346.265V16.9351H308.553V23.3164H315.9H322.512Z" fill="#2183CC"/>
<path d="M322.512 67.2495H315.9H308.553V73.6308H347V67.2495H322.512Z" fill="#2183CC"/>
</svg>
