<svg width="274" height="126" viewBox="0 0 274 126" fill="none" xmlns="http://www.w3.org/2000/svg">
<path d="M41.7114 111.932V125.007H51.4968V122.952H44.0088V119.441H50.5634V117.387H44.0088V113.988H51.4034V111.932H41.7114Z" fill="#7B7979"/>
<path d="M75.778 111.932L71.8007 118.115L67.8234 111.932H65.3767V125.007H67.6367V115.668L71.7274 121.795H71.8007L75.9287 115.631V125.007H78.2247V111.932H75.778Z" fill="#7B7979"/>
<path d="M103.172 111.932L99.193 118.115L95.2157 111.932H92.769V125.007H95.029V115.668L99.1197 121.795H99.193L103.321 115.631V125.007H105.618V111.932H103.172Z" fill="#7B7979"/>
<path d="M124.77 111.84L119.017 125.008H121.372L122.716 121.85H128.898L130.225 125.008H132.652L126.9 111.84H124.77ZM125.797 114.585L128.058 119.813H123.557L125.797 114.585Z" fill="#7B7979"/>
<path d="M154.587 111.932V117.367H148.35V111.932H146.052V125.007H148.35V119.497H154.587V125.007H156.884V111.932H154.587Z" fill="#7B7979"/>
<path d="M171.139 124.559L172.019 122.84C172.54 123.139 173.045 123.252 173.623 123.252C174.204 123.252 175.024 122.896 175.677 121.832L170.224 111.932H172.803L176.873 119.533L180.459 111.932H182.944L177.844 122.148C176.743 124.371 175.399 125.212 173.699 125.212C172.691 125.212 171.907 124.969 171.139 124.559Z" fill="#7B7979"/>
<path d="M198.227 110.849H200.524V108.647H198.227V110.849ZM194.511 110.849H196.808V108.647H194.511V110.849ZM196.36 125.007H198.657V111.932H196.36V125.007Z" fill="#7B7979"/>
<path d="M211.857 124.951L212.081 123.064C212.248 123.12 212.548 123.176 212.828 123.176C214.155 123.176 215.387 122.336 215.387 114.511V111.932H224.352V125.007H222.053V114.007H217.535V115.183C217.535 123.493 216.021 125.156 213.444 125.156C212.94 125.156 212.212 125.044 211.857 124.951Z" fill="#7B7979"/>
<path d="M51.7478 1.92602H56.1225C58.7051 1.92602 60.3371 3.39935 60.3371 5.66602C60.3371 8.15402 58.3411 9.45402 55.8998 9.45402H53.6971V13.0193H51.7478V1.92602ZM55.9638 7.69402C57.4371 7.69402 58.3571 6.87002 58.3571 5.68068C58.3571 4.38202 57.4211 3.70068 55.9638 3.70068H53.6971V7.69402H55.9638Z" fill="#975FB6"/>
<path d="M73.2497 1.84656H75.0564L79.9377 13.0199H77.8777L76.7524 10.3412H71.5057L70.3657 13.0199H68.3684L73.2497 1.84656ZM76.0391 8.61323L74.1217 4.1759L72.2204 8.61323H76.0391Z" fill="#975FB6"/>
<path d="M89.1326 11.2763H90.2112C91.1299 9.45364 91.6206 7.20298 91.6206 3.49498V1.92564H99.3552V11.2763H100.734L100.465 15.3976H98.8486V13.0203H91.0352L90.8446 15.3976H89.1326V11.2763ZM97.4059 11.2763V3.68564H93.4912V4.95364C93.4912 7.52031 93.0472 9.73898 92.2872 11.2763H97.4059Z" fill="#975FB6"/>
<path d="M110.605 1.92535H112.555V13.0187H110.605V1.92535Z" fill="#975FB6"/>
<path d="M122.804 7.47281C122.804 4.35014 125.213 1.73548 128.62 1.73548C132.028 1.73548 134.405 4.31948 134.405 7.47281C134.405 10.5955 131.997 13.2101 128.589 13.2101C125.181 13.2101 122.804 10.6261 122.804 7.47281ZM132.361 7.47281C132.361 5.31681 130.792 3.52614 128.589 3.52614C126.386 3.52614 124.849 5.28481 124.849 7.47281C124.849 9.62748 126.418 11.4195 128.62 11.4195C130.824 11.4195 132.361 9.66081 132.361 7.47281Z" fill="#975FB6"/>
<path d="M0.384521 80.658L3.86319 75.978C10.5832 81.138 18.0232 84.018 25.8232 84.018C34.1032 84.018 40.5819 79.458 40.5819 72.138C40.5819 64.9394 32.9032 62.2994 24.3832 59.8994C14.4232 57.0194 3.38452 54.0194 3.38452 42.8594C3.38452 33.0207 11.6632 25.9407 23.5432 25.9407C30.8619 25.9407 39.1419 28.5794 45.2619 32.6607L42.1419 37.5794C36.5032 33.8594 29.7832 31.4607 23.3032 31.4607C14.9045 31.4607 9.38319 36.0207 9.38319 42.3794C9.38319 49.2194 17.6632 51.7394 26.4232 54.2594C36.2619 57.0194 46.5819 60.6194 46.5819 71.6594C46.5819 82.578 37.2232 89.538 25.4632 89.538C16.5832 89.538 6.86319 85.938 0.384521 80.658Z" fill="#975FB6"/>
<path d="M52.9604 27.1404H59.8004L82.9591 81.7378L106.359 27.1404H112.959L85.4804 88.8177H80.4391L52.9604 27.1404Z" fill="#975FB6"/>
<path d="M125.643 27.14H131.521V88.3374H125.643V27.14Z" fill="#975FB6"/>
<path d="M196.807 88.3374H202.685V0.741379H196.807V88.3374Z" fill="#975FB6"/>
<path d="M216.451 57.619C216.451 39.8603 228.93 25.7003 245.49 25.7003C262.648 25.7003 273.568 39.6203 273.568 57.739C273.568 58.819 273.568 59.179 273.448 60.139H222.691C223.771 75.3776 234.691 84.2576 246.69 84.2576C256.17 84.2576 262.648 80.0576 267.69 74.6576L271.768 78.2576C265.53 84.9776 258.208 89.7776 246.45 89.7776C230.37 89.7776 216.451 76.9376 216.451 57.619ZM267.208 54.859C266.368 42.5003 259.29 31.1003 245.251 31.1003C233.131 31.1003 223.771 41.3003 222.691 54.859H267.208Z" fill="#975FB6"/>
<path d="M166.428 32.5401H181.608V27.1401H166.428V7.58148H160.549V27.1401H145.369V32.5401H160.549V88.3215H166.428V32.5401Z" fill="#975FB6"/>
</svg>
