<svg width="34" height="33" viewBox="0 0 34 33" fill="none" xmlns="http://www.w3.org/2000/svg">
<path d="M17 6.5C11.195 6.5 6.5 11.195 6.5 17H9.5C9.5 12.86 12.86 9.5 17 9.5C21.14 9.5 24.5 12.86 24.5 17H27.5C27.5 11.195 22.805 6.5 17 6.5ZM18.5 20.435C19.82 19.85 20.75 18.545 20.75 17C20.75 14.93 19.07 13.25 17 13.25C14.93 13.25 13.25 14.93 13.25 17C13.25 18.53 14.18 19.85 15.5 20.435V25.385L10.385 30.5L12.5 32.615L17 28.115L21.5 32.615L23.615 30.5L18.5 25.385V20.435ZM17 0.5C7.895 0.5 0.5 7.895 0.5 17H3.5C3.5 9.545 9.545 3.5 17 3.5C24.455 3.5 30.5 9.545 30.5 17H33.5C33.5 7.895 26.105 0.5 17 0.5Z" fill="#C0FFEE"/>
</svg>
